<svg id="Layer_1" data-name="Layer 1" xmlns="http://www.w3.org/2000/svg" viewBox="0 0 819.47 131"><defs><style>.cls-1,.cls-2,.cls-3,.cls-4,.cls-5,.cls-6{fill:#89adff;stroke:#89adff;stroke-miterlimit:10;}.cls-1{stroke-width:2.94px;}.cls-2{stroke-width:4.9px;}.cls-3{stroke-width:1.93px;}.cls-4{stroke-width:2.91px;}.cls-5{stroke-width:4px;}.cls-6{stroke-width:3px;}</style></defs><path class="cls-1" d="M1.47,99c0-4,4.58-7.18,10.44-7.18s9.17,2.63,10.19,5.6c2,7,13,16.63,33.35,16.63,19.61,0,32.85-10.15,32.85-20.82C88.3,78.82,71,73.75,57.49,71.12L44.76,68.67C28.72,65.35,3.25,58,3.25,35.07,3.25,16,25.41,2,55.7,2c31.07,0,51.69,14.52,51.69,28.17,0,4-4.58,7.18-10.44,7.18-6.11,0-9.42-2.8-10.18-6-2-6.83-11.71-15.57-31.07-15.57-18.84,0-30.8,9.62-30.8,20.12,0,14,19.35,18.55,30.3,20.65l11.45,2.28C83.2,62.2,109.94,69,109.94,94.05c0,18.55-23.43,34-54.49,34C24.64,128,1.47,112.42,1.47,99Z"/><path class="cls-2" d="M118.76,28.37C118.76,24.81,122,22,126,22c4.14,0,7.42,2.81,7.42,6.37V69.08h55.25V28.37c.09-3.5,3.34-6.32,7.25-6.37s7.09,2.56,7.42,5.94v93.69c0,3.41-3.28,6.37-7.42,6.37-4,0-7.25-3-7.25-6.37V80.77H133.43v40.86c0,3.41-3.28,6.37-7.42,6.37-4,0-7.25-3-7.25-6.37Z"/><path class="cls-3" d="M214.33,75c0-28.55,25.58-51.14,58-51.14s58,22.59,58,51.14-25.57,51.14-58,51.14S214.33,103.55,214.33,75Zm101.81,0c0-22.16-19.38-39.63-43.82-39.63S228.67,52.84,228.67,75s19.22,39.49,43.65,39.49S316.14,97,316.14,75Z"/><path class="cls-3" d="M272.32,128c-33.56,0-59.85-23.28-59.85-53s26.29-53,59.85-53,59.86,23.28,59.86,53S305.88,128,272.32,128Zm0-102.28c-31.47,0-56.13,21.65-56.13,49.28s24.66,49.28,56.13,49.28S328.45,102.63,328.45,75,303.8,25.72,272.32,25.72Zm0,90.63c-25.52,0-45.52-18.16-45.52-41.35s20-41.49,45.52-41.49S318,51.73,318,75,297.94,116.35,272.32,116.35Zm0-79.12c-23.43,0-41.79,16.59-41.79,37.77s18.36,37.63,41.79,37.63,42-16.53,42-37.63S295.85,37.23,272.32,37.23Z"/><path class="cls-4" d="M343.15,18.72H311.77c-4.42,0-8-3.12-8-6.94s3.62-6.78,8-6.78h79.86c4.42,0,7.84,3,7.84,6.78s-3.42,6.94-7.84,6.94H360.25V120.53c0,4-3.82,7.47-8.65,7.47-4.63,0-8.45-3.47-8.45-7.47Z"/><path class="cls-5" d="M514.69,5a8.44,8.44,0,0,1,6.56-3,7.72,7.72,0,0,1,7.87,7.57v60L586.86,5a8.71,8.71,0,0,1,6.56-3,7.72,7.72,0,0,1,7.87,7.57V120.43a8,8,0,0,1-15.93,0v-92l-56.24,63v29a8,8,0,0,1-15.93,0v-92l-86.41,97A8.44,8.44,0,0,1,421,128a7.3,7.3,0,0,1-7.5-7,6.09,6.09,0,0,1,1.88-4.57Z"/><path class="cls-5" d="M613.25,9.56C613.25,5.42,617,2,621.56,2h32.65C676.77,2,693,17.12,693,35.84c0,11.34-6.53,23-21.18,27.9C687.06,68.6,695,80.84,695,93.44,695,112.52,678.35,128,655.4,128H621.56c-4.55,0-8.31-3.42-8.31-7.74ZM653,113.78c14.85,0,24.54-9.36,24.54-21.24,0-11.7-10.29-21.24-23.15-21.24h-7.72c-4.35,0-7.72-3.06-7.72-7a7.43,7.43,0,0,1,7.72-7.2h6.53c12.47,0,22.36-9,22.36-20.34,0-11.52-9.3-20.52-23.74-20.52H630.07v97.56Z"/><path class="cls-5" d="M798.23,5a9.76,9.76,0,0,1,6.93-3c4.55,0,8.31,3.34,8.31,7.57V120.43c0,4-3.76,7.57-8.31,7.57-4.75,0-8.51-3.52-8.51-7.57V96H761c-4.35,0-7.72-3-7.72-6.86s3.37-7,7.72-7h35.62V28.4l-91.23,97a9.54,9.54,0,0,1-6.13,2.64c-4.36,0-7.92-3.17-7.92-7a5.93,5.93,0,0,1,2-4.57Z"/><circle class="cls-6" cx="385.47" cy="120" r="9.5"/></svg>