<svg id="Layer_1" data-name="Layer 1" xmlns="http://www.w3.org/2000/svg" viewBox="0 0 815.29 130.47"><defs><style>.cls-1,.cls-2,.cls-3,.cls-4,.cls-5,.cls-6,.cls-7{fill:#89adff;stroke:#89adff;stroke-miterlimit:10;}.cls-1{stroke-width:2.94px;}.cls-2{stroke-width:4.9px;}.cls-3{stroke-width:1.93px;}.cls-4{stroke-width:2.91px;}.cls-5{stroke-width:3.67px;}.cls-6{stroke-width:3.63px;}.cls-7{stroke-width:3px;}</style></defs><path class="cls-1" d="M1.47,98.42c0-4,4.58-7.17,10.44-7.17s9.17,2.62,10.19,5.6c2,7,13,16.62,33.35,16.62,19.61,0,32.85-10.15,32.85-20.82C88.3,78.3,71,73.22,57.49,70.6L44.76,68.15c-16-3.33-41.51-10.68-41.51-33.6C3.25,15.47,25.41,1.47,55.7,1.47c31.07,0,51.69,14.53,51.69,28.18,0,4-4.58,7.17-10.44,7.17-6.11,0-9.42-2.8-10.18-5.95-2-6.82-11.71-15.57-31.07-15.57-18.84,0-30.8,9.62-30.8,20.12,0,14,19.35,18.55,30.3,20.65l11.45,2.28c16.55,3.32,43.29,10.15,43.29,35.17,0,18.55-23.43,34-54.49,34C24.64,127.47,1.47,111.9,1.47,98.42Z"/><path class="cls-2" d="M118.76,27.84c0-3.56,3.28-6.37,7.25-6.37,4.14,0,7.42,2.81,7.42,6.37V68.55h55.25V27.84c.09-3.5,3.34-6.32,7.25-6.37s7.09,2.56,7.42,6V121.1c0,3.41-3.28,6.37-7.42,6.37-4,0-7.25-3-7.25-6.37V80.25H133.43V121.1c0,3.41-3.28,6.37-7.42,6.37-4,0-7.25-3-7.25-6.37Z"/><path class="cls-3" d="M214.33,74.47c0-28.55,25.58-51.14,58-51.14s58,22.59,58,51.14-25.57,51.14-58,51.14S214.33,103,214.33,74.47Zm101.81,0c0-22.16-19.38-39.63-43.82-39.63s-43.65,17.47-43.65,39.63S247.89,114,272.32,114,316.14,96.49,316.14,74.47Z"/><path class="cls-3" d="M272.32,127.47c-33.56,0-59.85-23.28-59.85-53s26.29-53,59.85-53,59.86,23.28,59.86,53S305.88,127.47,272.32,127.47Zm0-102.28c-31.47,0-56.13,21.65-56.13,49.28s24.66,49.28,56.13,49.28,56.13-21.65,56.13-49.28S303.8,25.19,272.32,25.19Zm0,90.63c-25.52,0-45.52-18.16-45.52-41.35S246.8,33,272.32,33,318,51.2,318,74.47,297.94,115.82,272.32,115.82Zm0-79.12c-23.43,0-41.79,16.59-41.79,37.77s18.36,37.63,41.79,37.63,42-16.53,42-37.63S295.85,36.7,272.32,36.7Z"/><path class="cls-4" d="M343.15,18.2H311.77c-4.42,0-8-3.13-8-6.95s3.62-6.78,8-6.78h79.86c4.42,0,7.84,3,7.84,6.78s-3.42,7-7.84,7H360.25V120c0,4-3.82,7.47-8.65,7.47-4.63,0-8.45-3.47-8.45-7.47Z"/><path class="cls-5" d="M514.69,24a9.19,9.19,0,0,1,6.56-2.52c4.31,0,7.87,2.81,7.87,6.37V78.32L586.86,24a9.49,9.49,0,0,1,6.56-2.52c4.31,0,7.87,2.81,7.87,6.37V121.1c0,3.41-3.56,6.37-7.87,6.37-4.5,0-8.06-3-8.06-6.37V43.68l-56.24,53V121.1c0,3.41-3.56,6.37-7.87,6.37-4.5,0-8.06-3-8.06-6.37V43.68l-86.41,81.57a9.21,9.21,0,0,1-5.81,2.22c-4.13,0-7.5-2.66-7.5-5.92a4.74,4.74,0,0,1,1.88-3.85Z"/><path class="cls-6" d="M613.25,29.71c0-3.42,3.76-6.24,8.31-6.24h32.65C676.77,23.47,693,36,693,51.4c0,9.36-6.53,19-21.18,23,15.24,4,23.16,14.12,23.16,24.51,0,15.75-16.63,28.53-39.58,28.53H621.56c-4.55,0-8.31-2.82-8.31-6.39Zm39.77,86c14.85,0,24.54-7.72,24.54-17.53,0-9.65-10.29-17.53-23.15-17.53h-7.72c-4.35,0-7.72-2.52-7.72-5.79s3.37-5.95,7.72-5.95h6.53c12.47,0,22.36-7.42,22.36-16.79s-9.3-16.93-23.74-16.93H630.07v80.52Z"/><path class="cls-6" d="M798.23,25.94a10.88,10.88,0,0,1,6.93-2.47c4.55,0,8.31,2.76,8.31,6.25v91.5c0,3.35-3.76,6.25-8.31,6.25-4.75,0-8.51-2.9-8.51-6.25V101H761c-4.35,0-7.72-2.47-7.72-5.67s3.37-5.81,7.72-5.81h35.62V45.26l-91.23,80a10.63,10.63,0,0,1-6.13,2.18c-4.36,0-7.92-2.61-7.92-5.81a4.54,4.54,0,0,1,2-3.78Z"/><circle class="cls-7" cx="385.47" cy="119.47" r="9.5"/></svg>